<svg width="60" height="60" viewBox="0 0 60 60" fill="none" xmlns="http://www.w3.org/2000/svg">
<rect width="60" height="60" rx="20" fill="url(#paint0_linear_21_257)"/>
<path d="M14.408 45.864C12.36 45.864 10.856 45.5333 9.896 44.872C8.936 44.2107 8.456 43.0267 8.456 41.32C8.456 40.552 8.47733 39.8907 8.52 39.336C8.584 38.76 8.63733 38.2053 8.68 37.672C8.744 37.1387 8.776 36.5307 8.776 35.848C8.776 35.464 8.648 35.1013 8.392 34.76C8.136 34.3973 7.688 34.0987 7.048 33.864C6.42933 33.6293 5.544 33.5013 4.392 33.48V30.728C5.544 30.7067 6.42933 30.5787 7.048 30.344C7.688 30.1093 8.136 29.8213 8.392 29.48C8.648 29.1173 8.776 28.744 8.776 28.36C8.776 27.6987 8.744 27.1013 8.68 26.568C8.63733 26.0133 8.584 25.448 8.52 24.872C8.47733 24.296 8.456 23.6347 8.456 22.888C8.456 21.16 8.936 19.976 9.896 19.336C10.856 18.6747 12.36 18.344 14.408 18.344H16.872V20.84H15.56C14.6853 20.84 14.0133 20.904 13.544 21.032C13.0747 21.16 12.744 21.384 12.552 21.704C12.3813 22.024 12.296 22.4827 12.296 23.08C12.296 23.9333 12.3173 24.776 12.36 25.608C12.424 26.44 12.456 27.336 12.456 28.296C12.456 29.512 12.2107 30.3973 11.72 30.952C11.2293 31.4853 10.408 31.848 9.256 32.04V32.168C10.408 32.36 11.2293 32.7333 11.72 33.288C12.2107 33.8213 12.456 34.696 12.456 35.912C12.456 36.872 12.424 37.768 12.36 38.6C12.3173 39.432 12.296 40.2747 12.296 41.128C12.296 41.7253 12.3813 42.184 12.552 42.504C12.744 42.824 13.0747 43.048 13.544 43.176C14.0133 43.304 14.6853 43.368 15.56 43.368H16.872V45.864H14.408ZM42.735 45.864V43.368H44.047C44.9217 43.368 45.5937 43.304 46.063 43.176C46.5323 43.048 46.8523 42.824 47.023 42.504C47.1937 42.184 47.279 41.7253 47.279 41.128C47.279 40.2747 47.2577 39.432 47.215 38.6C47.1723 37.768 47.151 36.872 47.151 35.912C47.151 34.696 47.3963 33.8213 47.887 33.288C48.3777 32.7333 49.199 32.36 50.351 32.168V32.04C49.199 31.848 48.3777 31.4853 47.887 30.952C47.3963 30.3973 47.151 29.512 47.151 28.296C47.151 27.336 47.1723 26.44 47.215 25.608C47.2577 24.776 47.279 23.9333 47.279 23.08C47.279 22.4827 47.1937 22.024 47.023 21.704C46.8523 21.384 46.5323 21.16 46.063 21.032C45.5937 20.904 44.9217 20.84 44.047 20.84H42.735V18.344H45.199C47.247 18.344 48.751 18.6747 49.711 19.336C50.671 19.976 51.151 21.16 51.151 22.888C51.151 23.6347 51.119 24.296 51.055 24.872C51.0123 25.448 50.959 26.0133 50.895 26.568C50.831 27.1013 50.799 27.6987 50.799 28.36C50.799 28.744 50.927 29.1173 51.183 29.48C51.439 29.8213 51.887 30.1093 52.527 30.344C53.167 30.5787 54.063 30.7067 55.215 30.728V33.48C54.063 33.5013 53.167 33.6293 52.527 33.864C51.887 34.0987 51.439 34.3973 51.183 34.76C50.927 35.1013 50.799 35.464 50.799 35.848C50.799 36.5307 50.831 37.1387 50.895 37.672C50.959 38.2053 51.0123 38.76 51.055 39.336C51.119 39.8907 51.151 40.552 51.151 41.32C51.151 43.0267 50.671 44.2107 49.711 44.872C48.751 45.5333 47.247 45.864 45.199 45.864H42.735Z" fill="url(#paint1_linear_21_257)"/>
<path d="M20.4755 41L26.9715 20.136H32.6035L39.0995 41H34.1075L31.4195 30.44C31.1635 29.3947 30.8862 28.2853 30.5875 27.112C30.2888 25.9387 30.0115 24.808 29.7555 23.72H29.6275C29.3715 24.808 29.1048 25.9387 28.8275 27.112C28.5502 28.2853 28.2728 29.3947 27.9955 30.44L25.2755 41H20.4755ZM24.7635 36.04V32.36H34.7475V36.04H24.7635Z" fill="#F9FAFB"/>
<defs>
<linearGradient id="paint0_linear_21_257" x1="30" y1="0" x2="30" y2="60" gradientUnits="userSpaceOnUse">
<stop stop-color="#162456" stop-opacity="0.2"/>
<stop offset="0.0001" stop-color="#00040F"/>
</linearGradient>
<linearGradient id="paint1_linear_21_257" x1="44.0309" y1="50" x2="39.6853" y2="10.4636" gradientUnits="userSpaceOnUse">
<stop stop-color="#372AAC"/>
<stop offset="1" stop-color="#00BCFF"/>
</linearGradient>
</defs>
</svg>
